# xmcd
#
# Track frame offsets:
#	150
#	14248
#	30640
#	43922
#	55383
#	68424
#	81610
#	92250
#	107049
#	121620
#	135681
#	148928
#
# Disc length: 2179 seconds
#
# Revision: 0
# Processed by: cddbd v1.5.2PL0 Copyright (c) Steve Scherf et al.
# Submitted via: dBpowerAMP V4.0
#
DISCID=a808810c
DTITLE=beny m - recuerdo a beny
DYEAR=1900
DGENRE=
TTITLE0=rabo y oreja
TTITLE1=mata siguaraya
TTITLE2=ya son las doce
TTITLE3=babaratibi
TTITLE4=bobo e la yuca
TTITLE5=manzanillo
TTITLE6=yiri yiri bon
TTITLE7=la mucura
TTITLE8=me voy pal pueblo
TTITLE9=que te parece
TTITLE10=parece que va llove
TTITLE11=cocaleca
EXTD=
EXTT0=
EXTT1=
EXTT2=
EXTT3=
EXTT4=
EXTT5=
EXTT6=
EXTT7=
EXTT8=
EXTT9=
EXTT10=
EXTT11=
PLAYORDER=
